# xmcd
#
# Track frame offsets: 
#        150
#        19252
#        41885
#        56205
#        71145
#        90582
#        106050
#        130917
#        152130
#        167867
#        190032
#        203242
#        216892
#        236420
#        257802
#        277217
#        294217
#        317017
#        331842
#
# Disc length: 4652 seconds
#
# Revision: 11
# Processed by: cddbd v1.5.2PL0 Copyright (c) Steve Scherf et al.
# Submitted via: ExactAudioCopyFreeDBPlugin 1.0
#
DISCID=1e122a13
DTITLE=Ry Cooder - River Rescue - The Very Best Of
DYEAR=1994
DGENRE=Blues
TTITLE0=River Come Down (PKA Bamboo)
TTITLE1=UFO Has Landed in the Ghetto
TTITLE2=Low-Commotion
TTITLE3=Smack Dab in the Middle
TTITLE4=Tattler
TTITLE5=Dark End of the Street
TTITLE6=The Very Thing That Makes You Rich (Makes Me Poor)
TTITLE7=Going Back to Okinawa
TTITLE8=Money Honey
TTITLE9=Why Don't You Try Me
TTITLE10=Paris, Texas
TTITLE11=Chloe
TTITLE12=The Pearls - Tia Juana
TTITLE13=I Think It's Going to Work Out Fine
TTITLE14=Down in Hollywood
TTITLE15=Which Came First
TTITLE16=Crazy 'Bout an Automobile (Every Woman I Know)
TTITLE17=Get Rhythm (With Larry Blackmon)
TTITLE18=Little Sister
EXTD=YEAR: 1994
EXTT0=
EXTT1=
EXTT2=
EXTT3=
EXTT4=
EXTT5=
EXTT6=
EXTT7=
EXTT8=
EXTT9=
EXTT10=
EXTT11=
EXTT12=
EXTT13=
EXTT14=
EXTT15=
EXTT16=
EXTT17=With Larry Blackmon
EXTT18=
PLAYORDER=
